<svg width="22" height="22" viewBox="0 0 22 22" fill="none" xmlns="http://www.w3.org/2000/svg">
<path d="M7.9081 20.7806L8.22433 21.7293H8.22433L7.9081 20.7806ZM14.4081 18.614L14.7243 19.5627L14.7243 19.5626L14.4081 18.614ZM20.7071 5.04289L21.4142 5.75L20.7071 5.04289ZM2 2H20V0H2V2ZM2 4.33579V2H0V4.33579H2ZM7.66421 9.99999L2 4.33579L0.585786 5.75L6.24999 11.4142L7.66421 9.99999ZM6.24999 11.4142V20.3063H8.24999V11.4142H6.24999ZM6.24999 20.3063C6.24999 21.3301 7.25303 22.0531 8.22433 21.7293L7.59188 19.832C7.91565 19.724 8.24999 19.965 8.24999 20.3063H6.24999ZM8.22433 21.7293L14.7243 19.5627L14.0919 17.6653L7.59188 19.832L8.22433 21.7293ZM14.7243 19.5626C15.3368 19.3585 15.75 18.7853 15.75 18.1396H13.75C13.75 17.9244 13.8877 17.7333 14.0919 17.6653L14.7243 19.5626ZM15.75 18.1396V11.4142H13.75V18.1396H15.75ZM20 4.33579L14.3358 10L15.75 11.4142L21.4142 5.75L20 4.33579ZM20 2V4.33579H22V2H20ZM21.4142 5.75C21.7893 5.37493 22 4.86622 22 4.33579H20L21.4142 5.75ZM15.75 11.4142V11.4142L14.3358 10C13.9607 10.3751 13.75 10.8838 13.75 11.4142H15.75ZM6.24999 11.4142H8.24999C8.24999 10.8838 8.03928 10.3751 7.66421 9.99999L6.24999 11.4142ZM0 4.33579C0 4.86622 0.210712 5.37493 0.585786 5.75L2 4.33579L2 4.33579H0ZM20 2H22C22 0.89543 21.1046 0 20 0V2ZM2 0C0.895431 0 0 0.89543 0 2H2V2V0Z" fill="#333333"/>
</svg>
