<svg width="20" height="20" viewBox="0 0 20 20" fill="none" xmlns="http://www.w3.org/2000/svg">
<path d="M9.99984 5.84773C9.17575 5.84773 8.37017 6.09185 7.68496 6.54923C6.99976 7.0066 6.4657 7.65668 6.15034 8.41727C5.83497 9.17785 5.75246 10.0148 5.91323 10.8222C6.074 11.6296 6.47084 12.3713 7.05356 12.9534C7.63628 13.5356 8.37871 13.932 9.18696 14.0926C9.99522 14.2532 10.833 14.1708 11.5944 13.8557C12.3557 13.5407 13.0065 13.0072 13.4643 12.3227C13.9221 11.6382 14.1665 10.8334 14.1665 10.0102C14.1665 8.90622 13.7275 7.84749 12.9461 7.06688C12.1647 6.28627 11.1049 5.84773 9.99984 5.84773ZM9.99984 12.5076C9.50538 12.5076 9.02203 12.3611 8.61091 12.0867C8.19979 11.8123 7.87936 11.4222 7.69014 10.9659C7.50092 10.5095 7.45141 10.0074 7.54787 9.52293C7.64434 9.03847 7.88244 8.59347 8.23207 8.24419C8.5817 7.89492 9.02716 7.65706 9.51211 7.56069C9.99706 7.46433 10.4997 7.51378 10.9565 7.70281C11.4134 7.89184 11.8038 8.21194 12.0785 8.62265C12.3532 9.03335 12.4998 9.51621 12.4998 10.0102C12.4998 10.6725 12.2364 11.3078 11.7676 11.7761C11.2988 12.2445 10.6629 12.5076 9.99984 12.5076ZM14.1665 5.01525C14.0017 5.01525 13.8406 5.06407 13.7035 5.15555C13.5665 5.24702 13.4597 5.37704 13.3966 5.52915C13.3335 5.68127 13.317 5.84866 13.3492 6.01014C13.3813 6.17163 13.4607 6.31996 13.5772 6.43639C13.6938 6.55281 13.8423 6.6321 14.0039 6.66422C14.1656 6.69634 14.3331 6.67986 14.4854 6.61685C14.6377 6.55384 14.7678 6.44714 14.8594 6.31024C14.951 6.17333 14.9998 6.01238 14.9998 5.84773C14.9998 5.62694 14.912 5.4152 14.7558 5.25908C14.5995 5.10295 14.3875 5.01525 14.1665 5.01525ZM18.2832 6.88001C18.2694 6.16859 18.1341 5.46474 17.8832 4.7988C17.6505 4.1928 17.2928 3.64247 16.8334 3.18353C16.374 2.72458 15.8231 2.36729 15.2165 2.13485C14.5499 1.88418 13.8453 1.74904 13.1332 1.73525C12.3248 1.6853 12.0582 1.6853 9.99984 1.6853C7.9415 1.6853 7.67484 1.6853 6.8665 1.73525C6.15436 1.74904 5.44979 1.88418 4.78317 2.13485C4.17656 2.36729 3.62566 2.72458 3.16625 3.18353C2.70684 3.64247 2.34918 4.1928 2.1165 4.7988C1.86559 5.46474 1.73031 6.16859 1.7165 6.88001C1.6665 7.69585 1.6665 7.96225 1.6665 10.0102C1.6665 12.0581 1.6665 12.3245 1.7165 13.1403C1.73031 13.8517 1.86559 14.5556 2.1165 15.2215C2.34918 15.8275 2.70684 16.3779 3.16625 16.8368C3.62566 17.2957 4.17656 17.653 4.78317 17.8855C5.44979 18.1361 6.15436 18.2713 6.8665 18.2851C7.69984 18.2851 7.9415 18.335 9.99984 18.335C12.0582 18.335 12.3248 18.335 13.1332 18.2851C13.8453 18.2713 14.5499 18.1361 15.2165 17.8855C15.8231 17.653 16.374 17.2957 16.8334 16.8368C17.2928 16.3779 17.6505 15.8275 17.8832 15.2215C18.1341 14.5556 18.2694 13.8517 18.2832 13.1403C18.2832 12.3078 18.3332 12.0581 18.3332 10.0102C18.3332 7.96225 18.3332 7.69585 18.2832 6.88001ZM16.6165 13.0654C16.6019 13.5937 16.5034 14.1163 16.3248 14.6138C16.1772 15.007 15.9437 15.3625 15.6415 15.6544C15.351 15.9565 14.9945 16.1873 14.5998 16.3287C14.1007 16.5145 13.574 16.6157 13.0415 16.6284C12.2582 16.6284 12.0165 16.67 9.9915 16.67C7.9665 16.67 7.73317 16.67 6.94984 16.67C6.41819 16.6563 5.89213 16.558 5.3915 16.3787C4.99789 16.2312 4.64206 15.998 4.34984 15.696C4.04747 15.4059 3.81644 15.0497 3.67484 14.6554C3.48967 14.1595 3.38829 13.6362 3.37484 13.107C3.37484 12.2745 3.37484 12.0664 3.37484 10.0518C3.37484 8.03717 3.37484 7.79575 3.37484 6.99656C3.3892 6.46478 3.49054 5.93892 3.67484 5.43981C3.81863 5.04907 4.04945 4.69609 4.34984 4.40753C4.64032 4.10547 4.99684 3.87467 5.3915 3.73322C5.89066 3.54749 6.41733 3.4462 6.94984 3.43352C7.73317 3.35027 7.97484 3.35027 9.99984 3.35027C12.0248 3.35027 12.2665 3.35027 13.0498 3.35027C13.585 3.36387 14.1142 3.46511 14.6165 3.64997C15.0076 3.79362 15.361 4.0242 15.6498 4.32428C15.9522 4.61447 16.1832 4.97063 16.3248 5.36489C16.5288 5.87151 16.6444 6.40931 16.6665 6.95494C16.6665 7.78742 16.7082 7.99554 16.7082 10.0102C16.7082 12.0248 16.6665 12.2662 16.6665 13.0654H16.6165Z" fill="#C9AD85"/>
</svg>
