<svg width="211" height="28" viewBox="0 0 211 28" fill="none" xmlns="http://www.w3.org/2000/svg">
<path d="M119.374 27.5626C115.5 27.5626 112.229 26.2566 109.561 23.6448C106.894 21.033 105.561 17.7446 105.563 13.7797C105.563 9.89409 106.909 6.62608 109.6 3.97565C112.292 1.32522 115.65 0 119.676 0C124.443 0 128.192 1.86774 130.922 5.60322L125.491 9.76864C123.833 7.72292 121.869 6.70006 119.598 6.70006C118.727 6.67831 117.862 6.85092 117.068 7.20505C116.273 7.55919 115.57 8.08579 115.009 8.74578C113.796 10.1434 113.154 11.9384 113.208 13.7797C113.208 15.7997 113.808 17.4851 115.009 18.8361C115.573 19.4911 116.278 20.0131 117.072 20.3637C117.866 20.7143 118.729 20.8847 119.598 20.8625C120.762 20.896 121.913 20.6146 122.927 20.0487C123.962 19.4033 124.881 18.5899 125.644 17.6427L131.228 21.5798C129.934 23.3752 128.267 24.8765 126.339 25.9832C124.478 27.0361 122.156 27.5626 119.374 27.5626Z" fill="#333333"/>
<path d="M134.41 27.0319V0.530762H141.834V20.5956H154.803V27.0286L134.41 27.0319Z" fill="#333333"/>
<path d="M173.949 0.530762L170.143 7.54604L166.334 0.530762H173.949Z" fill="#C9AD85"/>
<path d="M166.698 27.2217L155.836 0.524414H164.137L170.219 17.2987L176.303 0.527629H184.452L173.586 27.2249L166.698 27.2217Z" fill="#333333"/>
<path d="M187.052 27.0319V0.530762H200.788C204.051 0.530762 206.486 1.32525 208.094 2.91422C208.665 3.4861 209.112 4.16736 209.408 4.91625C209.704 5.66514 209.842 6.46589 209.814 7.26942C209.814 10.0185 208.437 11.987 205.682 13.175C207.416 13.7325 208.736 14.5281 209.641 15.5617C210.547 16.5953 211 17.9827 211 19.7239C211 21.9969 210.107 23.7832 208.322 25.0826C206.536 26.3821 204.05 27.0319 200.862 27.0319H187.052ZM194.284 11.0939H198.951C201.296 11.0939 202.468 10.2983 202.468 8.70722C202.468 7.19544 201.347 6.43848 199.104 6.43634H194.284V11.0939ZM194.284 21.1263H200.02C202.404 21.1263 203.596 20.2932 203.596 18.627C203.596 17.0381 202.385 16.2436 199.962 16.2436H194.284V21.1263Z" fill="#333333"/>
<path d="M101.081 0.4375H0V28.0001H101.081V0.4375Z" fill="#C9AD85"/>
<path d="M4.9209 24.5649V3.86963H10.7162V19.5503H20.8441V24.5777L4.9209 24.5649Z" fill="white"/>
<path d="M43.6555 21.8436C41.4887 23.9343 38.805 24.9797 35.6045 24.9797C32.4041 24.9797 29.7302 23.9397 27.5828 21.8596C26.5628 20.8601 25.7536 19.6699 25.2023 18.3583C24.6509 17.0467 24.3684 15.6397 24.3711 14.2191C24.3738 12.7985 24.6617 11.3927 25.2181 10.0831C25.7745 8.77355 26.5882 7.58643 27.6121 6.59071C29.7789 4.49996 32.4626 3.45459 35.6631 3.45459C38.8635 3.45459 41.5374 4.4946 43.6848 6.57464C44.7048 7.57419 45.514 8.76434 46.0653 10.076C46.6167 11.3876 46.8992 12.7946 46.8965 14.2152C46.8938 15.6357 46.6059 17.0416 46.0495 18.3512C45.4931 19.6607 44.6794 20.8478 43.6555 21.8436ZM35.6631 19.8043C36.3841 19.8285 37.1017 19.6956 37.765 19.4149C38.4284 19.1342 39.0213 18.7126 39.5017 18.1799C40.489 17.095 41.0183 15.6767 40.9805 14.2171C41.0101 12.7561 40.4646 11.3409 39.4594 10.2704C38.9748 9.73756 38.3793 9.31497 37.7138 9.03177C37.0483 8.74858 36.3287 8.6115 35.6045 8.63C34.888 8.60691 34.175 8.74051 33.5166 9.02128C32.8582 9.30205 32.2704 9.72308 31.7952 10.2544C30.8363 11.355 30.3113 12.7613 30.3167 14.2145C30.322 15.6677 30.8575 17.0702 31.8244 18.1638C32.305 18.6973 32.8975 19.1206 33.5605 19.4039C34.2236 19.6873 34.9411 19.8239 35.6631 19.8043Z" fill="white"/>
<path d="M69.1438 21.8436C66.977 23.9343 64.2933 24.9797 61.0928 24.9797C57.8924 24.9797 55.2185 23.9397 53.0711 21.8596C52.0511 20.8601 51.2419 19.6699 50.6905 18.3583C50.1392 17.0467 49.8567 15.6397 49.8594 14.2191C49.8621 12.7985 50.15 11.3927 50.7064 10.0831C51.2628 8.77355 52.0765 7.58643 53.1003 6.59071C55.2672 4.49996 57.9509 3.45459 61.1513 3.45459C64.3518 3.45459 67.0257 4.4946 69.1731 6.57464C70.1931 7.57419 71.0023 8.76434 71.5536 10.076C72.105 11.3876 72.3875 12.7946 72.3848 14.2152C72.3821 15.6357 72.0941 17.0416 71.5378 18.3512C70.9814 19.6607 70.1677 20.8478 69.1438 21.8436ZM61.1513 19.8043C61.8724 19.8285 62.59 19.6956 63.2533 19.4149C63.9167 19.1342 64.5095 18.7126 64.9899 18.1799C65.9773 17.095 66.5066 15.6767 66.4688 14.2171C66.4984 12.7561 65.9529 11.3409 64.9477 10.2704C64.4631 9.73756 63.8676 9.31497 63.2021 9.03177C62.5366 8.74858 61.817 8.6115 61.0928 8.63C60.3762 8.60691 59.6633 8.74051 59.0049 9.02128C58.3465 9.30205 57.7587 9.72308 57.2835 10.2544C56.3246 11.355 55.7996 12.7613 55.8049 14.2145C55.8103 15.6677 56.3457 17.0702 57.3127 18.1638C57.7933 18.6973 58.3858 19.1206 59.0488 19.4039C59.7119 19.6873 60.4294 19.8239 61.1513 19.8043Z" fill="white"/>
<path d="M75.9658 24.5649V3.86963H81.7611V12.2648L88.9605 3.86963H95.8316L87.9172 12.7698L96.1014 24.5649H89.1425L83.8835 16.8773L81.7611 19.2286V24.581L75.9658 24.5649Z" fill="white"/>
</svg>
