<svg width="20" height="21" viewBox="0 0 20 21" fill="none" xmlns="http://www.w3.org/2000/svg">
<path d="M18.5541 2.11259C18.3168 1.9154 18.0305 1.78617 17.7255 1.73864C17.4206 1.69112 17.1084 1.72707 16.8223 1.84269L1.88821 7.86602C1.56884 7.99729 1.29698 8.22248 1.10871 8.51171C0.920449 8.80094 0.824686 9.14052 0.834134 9.48539C0.843581 9.83026 0.957794 10.1641 1.16161 10.4426C1.36543 10.7211 1.64921 10.9311 1.9753 11.0447L4.99613 12.0943L6.67988 17.6567C6.70276 17.731 6.73597 17.8017 6.77853 17.8668C6.78499 17.8768 6.7941 17.8842 6.80096 17.8939C6.85013 17.9624 6.90956 18.023 6.97715 18.0735C6.99638 18.0882 7.01479 18.1019 7.03534 18.1149C7.11445 18.1673 7.20206 18.2057 7.29428 18.2282L7.30414 18.229L7.30974 18.2314C7.36518 18.2427 7.42161 18.2484 7.4782 18.2485C7.48364 18.2485 7.48847 18.2459 7.49386 18.2458C7.57925 18.2443 7.66389 18.2296 7.74477 18.2022C7.76359 18.1958 7.77971 18.1851 7.79797 18.1774C7.85828 18.1524 7.91543 18.1204 7.96821 18.082C8.01048 18.0464 8.05276 18.0109 8.09506 17.9753L10.3469 15.4917L13.7054 18.0908C14.0011 18.3207 14.365 18.4457 14.7398 18.446C15.1324 18.4455 15.513 18.3102 15.8176 18.0627C16.1222 17.8152 16.3324 17.4706 16.413 17.0867L19.1319 3.75318C19.1935 3.45308 19.1723 3.1419 19.0705 2.85292C18.9687 2.56394 18.7902 2.30804 18.5541 2.11259ZM7.80863 12.3593C7.69308 12.4743 7.61409 12.6208 7.58158 12.7804L7.32365 14.0325L6.67027 11.8738L10.058 10.1115L7.80863 12.3593ZM14.7268 16.7746L10.7578 13.7031C10.5918 13.575 10.3835 13.514 10.1745 13.5324C9.96542 13.5508 9.77099 13.6471 9.62991 13.8023L8.90874 14.5975L9.1636 13.3601L15.0661 7.46357C15.207 7.32301 15.2928 7.1367 15.3081 6.93837C15.3233 6.74005 15.2669 6.54283 15.1492 6.38243C15.0314 6.22204 14.8601 6.10908 14.6661 6.06402C14.4722 6.01896 14.2685 6.04478 14.092 6.13679L5.62092 10.5428L2.51729 9.40823L17.4994 3.42065L14.7268 16.7746Z" fill="#C9AD85"/>
</svg>
