<svg width="20" height="21" viewBox="0 0 20 21" fill="none" xmlns="http://www.w3.org/2000/svg">
<g clip-path="url(#clip0_1_98)">
<path d="M13.1199 11.3189C12.8765 11.0559 12.6031 10.8223 12.3054 10.6228C13.5068 9.69486 14.3488 8.37924 14.6877 6.90037C14.7127 6.7935 14.7163 6.68274 14.6983 6.57447C14.6803 6.4662 14.641 6.36255 14.5828 6.26948C14.5246 6.17642 14.4485 6.09578 14.3589 6.03221C14.2693 5.96864 14.1681 5.92338 14.061 5.89905C13.9538 5.87472 13.8429 5.87179 13.7347 5.89044C13.6264 5.90908 13.5229 5.94893 13.4301 6.00769C13.3373 6.06645 13.257 6.14296 13.1939 6.23282C13.1309 6.32268 13.0862 6.42411 13.0625 6.53128C12.9047 7.22305 12.5977 7.8721 12.1629 8.43316C11.7282 8.99423 11.1762 9.45382 10.5454 9.77987V6.71749C10.5403 6.65623 10.528 6.59577 10.509 6.53732C10.5035 6.48918 10.4939 6.44161 10.4803 6.3951C10.4447 6.31939 10.3978 6.24952 10.3412 6.18789C10.3263 6.17021 10.3188 6.14689 10.3025 6.13053C10.2415 6.07423 10.1724 6.02736 10.0975 5.99146C10.0762 5.98013 10.0604 5.96097 10.0381 5.9515C9.97421 5.93025 9.90807 5.91665 9.84101 5.911C9.79963 5.8989 9.75733 5.89021 9.71452 5.88503L9.16927 5.88334H9.16683C8.97188 5.88241 8.78283 5.95012 8.63288 6.07457C8.48293 6.19902 8.38165 6.37226 8.34683 6.56388C8.31201 6.7555 8.34587 6.95325 8.44248 7.12241C8.53908 7.29158 8.69224 7.42134 8.87508 7.48891V11.5603C7.55452 10.1909 6.6801 8.45405 6.36695 6.57847C6.34867 6.47069 6.30932 6.36757 6.25115 6.27498C6.19298 6.1824 6.11713 6.10216 6.02792 6.03887C5.93871 5.97557 5.83789 5.93044 5.73123 5.90606C5.62456 5.88169 5.51413 5.87854 5.40625 5.89679C5.29836 5.91505 5.19513 5.95436 5.10245 6.01247C5.00977 6.07058 4.92946 6.14636 4.8661 6.23548C4.80273 6.3246 4.75756 6.42531 4.73316 6.53187C4.70876 6.63843 4.7056 6.74874 4.72388 6.85652C5.21087 9.7557 6.8292 12.3435 9.2238 14.0521C9.25795 14.0726 9.29355 14.0905 9.3303 14.1058C9.35916 14.1227 9.38908 14.1378 9.41987 14.1509C9.5129 14.1881 9.61191 14.208 9.71208 14.2099C9.83467 14.2084 9.95537 14.1794 10.0653 14.1251C10.0736 14.1212 10.0831 14.123 10.0913 14.1188C10.165 14.0805 10.2324 14.0313 10.2914 13.9729C10.3033 13.9613 10.3112 13.9472 10.3224 13.935C10.3761 13.876 10.421 13.8095 10.4556 13.7375C10.4672 13.7136 10.4778 13.6908 10.4871 13.6657C10.5237 13.5739 10.5435 13.4762 10.5454 13.3774L10.5458 11.6075C11.0621 11.759 11.5274 12.0482 11.8914 12.4441L13.2647 13.9399C13.3386 14.0208 13.4277 14.0862 13.527 14.1326C13.6262 14.179 13.7336 14.2054 13.8431 14.2102C13.9526 14.2151 14.0619 14.1983 14.1649 14.1609C14.2678 14.1235 14.3624 14.0661 14.4432 13.9921C14.5239 13.9181 14.5893 13.829 14.6355 13.7297C14.6817 13.6305 14.7078 13.5231 14.7124 13.4137C14.717 13.3044 14.7 13.1952 14.6623 13.0924C14.6246 12.9896 14.567 12.8953 14.4928 12.8148L13.1199 11.3189ZM12.5608 0.888428H7.44808C2.31705 0.888428 0.833496 2.36885 0.833496 7.48734V12.5953C0.833496 17.7211 2.31502 19.2031 7.43954 19.2031H12.5522C17.6833 19.2031 19.1668 17.7227 19.1668 12.6042V7.49628C19.1668 2.37048 17.6853 0.888428 12.5608 0.888428ZM17.5002 12.6042C17.5002 16.8 16.7604 17.5381 12.5522 17.5381H7.43954C3.23869 17.5381 2.50016 16.7991 2.50016 12.5953V7.48734C2.50016 3.29158 3.23991 2.5534 7.44808 2.5534H12.5608C16.7616 2.5534 17.5002 3.2924 17.5002 7.49628V12.6042Z" fill="#C9AD85"/>
</g>
<defs>
<clipPath id="clip0_1_98">
<rect width="20" height="19.9797" fill="white" transform="translate(0 0.0559082)"/>
</clipPath>
</defs>
</svg>
