<svg width="18" height="19" viewBox="0 0 18 19" fill="none" xmlns="http://www.w3.org/2000/svg">
<path d="M9.06269 17.9815C7.55733 17.9741 6.07831 17.5864 4.76324 16.8545L0 18.1067L1.25348 13.4485C0.445129 12.0917 0.012517 10.5445 0 8.9656C0.004991 7.19113 0.535492 5.45781 1.52469 3.98395C2.51388 2.51009 3.91754 1.3616 5.55886 0.683136C7.20019 0.00467044 9.00578 -0.173431 10.7482 0.171261C12.4907 0.515954 14.0921 1.36803 15.3507 2.62016C16.6093 3.8723 17.4689 5.4685 17.8212 7.20773C18.1735 8.94697 18.0027 10.7514 17.3304 12.3939C16.6581 14.0364 15.5143 15.4434 14.043 16.4377C12.5718 17.432 10.8389 17.9691 9.06269 17.9815ZM9.06269 1.54C7.73376 1.55519 6.43259 1.92191 5.29165 2.6028C4.15072 3.28369 3.21077 4.25445 2.56751 5.41624C1.92424 6.57803 1.60064 7.88935 1.62964 9.2167C1.65863 10.5441 2.0392 11.84 2.73259 12.9727L2.90808 13.2607L2.15599 16.003L5.01394 15.2266L5.2897 15.3894C6.42984 16.0603 7.72697 16.4188 9.05015 16.4288C11.0448 16.4288 12.9578 15.6372 14.3682 14.2282C15.7787 12.8192 16.5711 10.9082 16.5711 8.91551C16.5711 6.92287 15.7787 5.01185 14.3682 3.60284C12.9578 2.19383 11.0448 1.40226 9.05015 1.40226L9.06269 1.54ZM13.4499 12.2088C13.2857 12.4824 13.0659 12.7185 12.8046 12.9018C12.5433 13.0852 12.2465 13.2117 11.9332 13.2732C11.465 13.3587 10.9831 13.3286 10.5293 13.1855C10.1023 13.0522 9.68368 12.8933 9.27578 12.7097C7.72615 11.9329 6.4046 10.768 5.44012 9.32874C4.91602 8.66191 4.59801 7.85683 4.52508 7.01216C4.51761 6.66127 4.58406 6.31274 4.7201 5.98916C4.85614 5.66558 5.05875 5.37417 5.31477 5.13384C5.39019 5.04843 5.4827 4.97977 5.58635 4.93232C5.68999 4.88486 5.80244 4.85967 5.91644 4.85836H6.26742C6.4053 4.85836 6.59333 4.85836 6.76881 5.24654C6.9443 5.63473 7.40809 6.79928 7.47076 6.91198C7.50157 6.97205 7.51763 7.03858 7.51763 7.10607C7.51763 7.17356 7.50157 7.24009 7.47076 7.30016C7.41535 7.43624 7.33925 7.56295 7.24514 7.67583C7.13232 7.81357 7.00698 7.97636 6.9067 8.07653C6.80642 8.17671 6.68107 8.30193 6.80642 8.52733C7.14748 9.10233 7.56963 9.62528 8.0599 10.0801C8.59379 10.5513 9.20421 10.9282 9.86492 11.1945C10.0905 11.3072 10.2284 11.2947 10.3538 11.1945C10.4791 11.0944 10.9178 10.5434 11.0683 10.318C11.2187 10.0926 11.3691 10.1302 11.5697 10.2053C11.7702 10.2804 12.8858 10.8189 13.1114 10.9316C13.3371 11.0443 13.475 11.0944 13.5376 11.1945C13.592 11.5223 13.5618 11.8584 13.4499 12.1713V12.2088Z" fill="#C9AD85"/>
</svg>
